<svg width="32" height="32" viewBox="0 0 32 32" fill="none" xmlns="http://www.w3.org/2000/svg">
  <!-- Background gradient -->
  <defs>
    <linearGradient id="bgGradient" x1="0%" y1="0%" x2="100%" y2="100%">
      <stop offset="0%" stop-color="#FF0000" />
      <stop offset="100%" stop-color="#B30000" />
    </linearGradient>
    <filter id="shadow" x="-20%" y="-20%" width="140%" height="140%">
      <feDropShadow dx="0" dy="1" stdDeviation="1" flood-opacity="0.3" />
    </filter>
  </defs>
  
  <!-- Rounded background -->
  <rect width="32" height="32" rx="8" fill="url(#bgGradient)" />
  
  <!-- Stylized PDF document icon -->
  <path d="M9 7H19L23 11V25H9V7Z" fill="white" filter="url(#shadow)" />
  
  <!-- Page fold -->
  <path d="M19 7V11H23L19 7Z" fill="#FFCCCC" />
  
  <!-- "P" letter overlay -->
  <path d="M12 14H16C17.1 14 18 14.9 18 16V18C18 19.1 17.1 20 16 20H14V24H12V14ZM14 18H16V16H14V18Z" 
        fill="#CC0000" filter="url(#shadow)" />
  
  <!-- Decorative elements -->
  <circle cx="16" cy="5" r="1.5" fill="white" opacity="0.8" />
  <circle cx="6" cy="6" r="1" fill="white" opacity="0.6" />
  <circle cx="26" cy="6" r="1" fill="white" opacity="0.6" />
</svg>
