<svg width="512" height="512" viewBox="0 0 512 512" fill="none" xmlns="http://www.w3.org/2000/svg">
  <!-- Dark brutalist background - matches website theme -->
  <rect width="512" height="512" fill="#000000" />

  <!-- Geometric border frame -->
  <rect x="32" y="32" width="448" height="448" rx="8" fill="none" stroke="#ffffff" stroke-width="3" />
  <rect x="48" y="48" width="416" height="416" rx="4" fill="none" stroke="#333333" stroke-width="1" />

  <!-- MH Letters - White brutalist style, bold geometric -->
  <g transform="translate(256, 256)">
    <!-- M Letter -->
    <path d="M-196 124V-124H-148L-96 4L-44 -124H4V124H-44V-36L-96 84L-148 -36V124H-196Z" fill="#ffffff" />

    <!-- H Letter -->
    <path d="M36 -124H84V-24H148V-124H196V124H148V24H84V124H36V-124Z" fill="#ffffff" />
  </g>

  <!-- Corner accent marks - brutalist detail -->
  <line x1="32" y1="80" x2="32" y2="32" stroke="#ffffff" stroke-width="3" />
  <line x1="32" y1="32" x2="80" y2="32" stroke="#ffffff" stroke-width="3" />

  <line x1="480" y1="80" x2="480" y2="32" stroke="#ffffff" stroke-width="3" />
  <line x1="480" y1="32" x2="432" y2="32" stroke="#ffffff" stroke-width="3" />

  <line x1="32" y1="432" x2="32" y2="480" stroke="#ffffff" stroke-width="3" />
  <line x1="32" y1="480" x2="80" y2="480" stroke="#ffffff" stroke-width="3" />

  <line x1="480" y1="432" x2="480" y2="480" stroke="#ffffff" stroke-width="3" />
  <line x1="480" y1="480" x2="432" y2="480" stroke="#ffffff" stroke-width="3" />
</svg>
